<svg xmlns="http://www.w3.org/2000/svg" width="101.187" height="108.468" viewBox="0 0 101.187 108.468"><defs><style>.cls-1{fill:#fff;fill-rule:evenodd}</style></defs><path class="cls-1" d="M87.937 108.078a10.5 10.5 0 0 1-5.407-16.82L69.762 73.27a18.959 18.959 0 0 1-25.02-7.41l-23.769 9.428a10.543 10.543 0 1 1-2.048-5.138l23.768-9.427a18.948 18.948 0 0 1 20.65-23.186l4.811-17.952a10.519 10.519 0 1 1 5.345 1.432l-4.81 17.953a18.946 18.946 0 0 1 5.59 31.107l12.763 17.985a10.509 10.509 0 1 1 .895 20.016zM11.813 71.647a4.979 4.979 0 1 0 3.525 6.1 4.988 4.988 0 0 0-3.529-6.1zm66.451-59.848a4.984 4.984 0 1 0-6.1 3.52 4.987 4.987 0 0 0 6.096-3.52zm-13.627 31.6a13.433 13.433 0 1 0 9.512 16.456 13.455 13.455 0 0 0-9.512-16.458zm27.3 49.72a4.979 4.979 0 1 0 3.525 6.1 4.987 4.987 0 0 0-3.525-6.1z"/></svg>