<svg xmlns="http://www.w3.org/2000/svg" width="31" height="30" viewBox="0 0 31 30"><defs><style>.cls-1{fill:#fff;fill-rule:evenodd}</style></defs><path class="cls-1" d="M27.864 30a3.131 3.131 0 0 1-3.135-3.12 3.08 3.08 0 0 1 .281-1.29l-5.064-4.18a5.658 5.658 0 0 1-7.776-.2l-6.116 4.53a3.083 3.083 0 0 1 .217 1.14 3.135 3.135 0 1 1-3.135-3.12 3.164 3.164 0 0 1 1.932.66l6.116-4.53a5.558 5.558 0 0 1-.676-2.67 5.653 5.653 0 0 1 4.833-5.57V6.13a3.135 3.135 0 1 1 1.65 0v5.52A5.625 5.625 0 0 1 21 20.15l5.064 4.18a3.124 3.124 0 1 1 1.8 5.67zM3.136 25.4a1.48 1.48 0 1 0 1.485 1.48 1.482 1.482 0 0 0-1.485-1.48zM17.651 3.12a1.486 1.486 0 1 0-1.485 1.48 1.488 1.488 0 0 0 1.485-1.48zm-1.485 10.11a3.99 3.99 0 1 0 4.008 3.99 4 4 0 0 0-4.008-3.99zm11.7 12.17a1.48 1.48 0 1 0 1.486 1.48 1.482 1.482 0 0 0-1.488-1.48z"/></svg>