<svg xmlns="http://www.w3.org/2000/svg" width="168" height="169" viewBox="0 0 168 169"><defs><style>.cls-1{fill:#fff;fill-rule:evenodd}</style></defs><path id="ico-webhost" class="cls-1" d="M462.96 1189.87h-61.648v30.52h39.308a2.305 2.305 0 1 1 0 4.61h-83.24a2.305 2.305 0 1 1 0-4.61h39.308v-30.52H335.04a20.048 20.048 0 0 1-20.04-20.01v-62.66a4.843 4.843 0 0 1 .029-.51c0-.04.014-.08.02-.13.017-.12.037-.24.064-.37.011-.05.026-.09.038-.14.03-.12.062-.23.1-.34.017-.05.037-.1.056-.15.041-.11.085-.21.134-.32.014-.03.024-.06.039-.09l23.118-46.59a4.624 4.624 0 0 1 4.144-2.56h112.512a4.624 4.624 0 0 1 4.144 2.56l23.118 46.59c.015.03.025.06.039.09.049.11.093.21.134.32l.056.15c.038.11.07.22.1.34.012.05.027.09.038.14.027.13.047.25.064.37.006.05.015.09.02.13a4.843 4.843 0 0 1 .029.51v62.66a20.048 20.048 0 0 1-20.036 20.01zm-10.574-124.64H345.614l-18.536 37.35h143.844zm21.363 46.59h-149.5v29.88h149.5v-29.88zm0 39.11h-149.5v18.93a10.8 10.8 0 0 0 10.789 10.78H462.96a10.8 10.8 0 0 0 10.789-10.78v-18.93zm-18.249 19.54a4.365 4.365 0 1 1 4.374-4.37 4.377 4.377 0 0 1-4.374 4.37zm0-5.66a1.29 1.29 0 1 0 1.292 1.29 1.293 1.293 0 0 0-1.292-1.29zm-17.716 5.66a4.365 4.365 0 1 1 4.373-4.37 4.377 4.377 0 0 1-4.369 4.37zm0-5.66a1.29 1.29 0 1 0 1.291 1.29 1.294 1.294 0 0 0-1.287-1.29zm-17.946 5.66a4.365 4.365 0 1 1 4.374-4.37 4.376 4.376 0 0 1-4.37 4.37zm0-5.66a1.29 1.29 0 1 0 1.292 1.29 1.293 1.293 0 0 0-1.288-1.29zm-79.151 12.1a10.805 10.805 0 1 1 10.825-10.81 10.829 10.829 0 0 1-10.821 10.81zm0-17a6.19 6.19 0 1 0 6.2 6.19 6.2 6.2 0 0 0-6.196-6.19zm0-44.74a10.805 10.805 0 1 1-10.824 10.8 10.828 10.828 0 0 1 10.828-10.8zm0 16.99a6.19 6.19 0 1 0-6.2-6.19 6.2 6.2 0 0 0 6.204 6.19zm79.151-10.55a4.365 4.365 0 1 1-4.373 4.36 4.375 4.375 0 0 1 4.377-4.36zm0 5.65a1.29 1.29 0 1 0-1.291-1.29 1.287 1.287 0 0 0 1.295 1.29zm17.946-5.65a4.365 4.365 0 1 1-4.374 4.36 4.374 4.374 0 0 1 4.378-4.36zm0 5.65a1.29 1.29 0 1 0-1.292-1.29 1.286 1.286 0 0 0 1.296 1.29zm17.716-5.65a4.365 4.365 0 1 1-4.374 4.36 4.375 4.375 0 0 1 4.374-4.36zm0 5.65a1.29 1.29 0 1 0-1.291-1.29 1.287 1.287 0 0 0 1.291 1.29zm-134.335 93.13h9.76a2.305 2.305 0 1 1 0 4.61h-9.76a2.305 2.305 0 1 1 .004-4.61zm17.725 0h9.761a2.305 2.305 0 1 1 0 4.61h-9.761a2.305 2.305 0 1 1 .004-4.61zm109.94 0h9.76a2.305 2.305 0 1 1 0 4.61h-9.76a2.305 2.305 0 1 1 .004-4.61zm16.7 0h9.76a2.305 2.305 0 1 1 0 4.61h-9.76a2.305 2.305 0 1 1 0-4.61z" transform="translate(-315 -1056)"/></svg>