<svg xmlns="http://www.w3.org/2000/svg" width="31" height="30" viewBox="0 0 31 30">
  <metadata><?xpacket begin="﻿" id="W5M0MpCehiHzreSzNTczkc9d"?>
<x:xmpmeta xmlns:x="adobe:ns:meta/" x:xmptk="Adobe XMP Core 5.6-c138 79.159824, 2016/09/14-01:09:01        ">
   <rdf:RDF xmlns:rdf="http://www.w3.org/1999/02/22-rdf-syntax-ns#">
      <rdf:Description rdf:about=""/>
   </rdf:RDF>
</x:xmpmeta>
                                                                                                    
                                                                                                    
                                                                                                    
                                                                                                    
                                                                                                    
                                                                                                    
                                                                                                    
                                                                                                    
                                                                                                    
                                                                                                    
                                                                                                    
                                                                                                    
                                                                                                    
                                                                                                    
                                                                                                    
                                                                                                    
                                                                                                    
                                                                                                    
                                                                                                    
                                                                                                    
                           
<?xpacket end="w"?></metadata>
<defs>
    <style>
      .cls-1 {
        fill: #fff;
        fill-rule: evenodd;
      }
    </style>
  </defs>
  <path class="cls-1" d="M712.864,3696a3.131,3.131,0,0,1-3.135-3.12,3.08,3.08,0,0,1,.281-1.29l-5.064-4.18a5.658,5.658,0,0,1-7.776-.2l-6.116,4.53a3.083,3.083,0,0,1,.217,1.14,3.135,3.135,0,1,1-3.135-3.12,3.164,3.164,0,0,1,1.932.66l6.116-4.53a5.558,5.558,0,0,1-.676-2.67,5.653,5.653,0,0,1,4.833-5.57v-5.52a3.135,3.135,0,1,1,1.65,0v5.52a5.625,5.625,0,0,1,4.009,8.5l5.064,4.18A3.124,3.124,0,1,1,712.864,3696Zm-24.728-4.6a1.48,1.48,0,1,0,1.485,1.48A1.482,1.482,0,0,0,688.136,3691.4Zm14.515-22.28a1.486,1.486,0,1,0-1.485,1.48A1.488,1.488,0,0,0,702.651,3669.12Zm-1.485,10.11a3.99,3.99,0,1,0,4.008,3.99A4,4,0,0,0,701.166,3679.23Zm11.7,12.17a1.48,1.48,0,1,0,1.486,1.48A1.482,1.482,0,0,0,712.864,3691.4Z" transform="translate(-685 -3666)"/>
</svg>
